<svg enable-background="new 0 0 88.761 88.761" height="88.761" viewBox="0 0 88.761 88.761" width="88.761" xmlns="http://www.w3.org/2000/svg"><path d="m88.748 28.822c-1.315-14.699-12.109-22.29-21.578-23.119-11.649-1.021-17.781 2.557-22.79 7.353-5.008-4.799-11.162-8.379-22.79-7.356-9.474.83-20.266 8.421-21.576 23.122l-.014 4.518.011.303c1.335 15.378 15.235 31.212 42.499 48.412l1.868 1.182 1.869-1.182c27.263-17.199 41.166-33.037 42.498-48.411l.017-4.511zm-41.733-.122c1.129-4.202 4.505-3.702 7.543-2.884 3.036.813 4.585 1.631 3.461 5.835-1.129 4.205-4.505 10.208-7.544 9.393-3.038-.814-4.586-8.138-3.46-12.344zm-12.809-2.887c3.039-.817 6.415-1.315 7.542 2.885 1.124 4.205-.423 11.532-3.461 12.343-3.038.815-6.412-5.19-7.542-9.393-1.127-4.201.421-5.021 3.461-5.835zm1.095 25.201c-2.415 1.394-9.188-.183-11.114-3.521-1.925-3.34-1.54-6.414.878-7.811 2.416-1.392 5.928-.573 7.853 2.772 1.932 3.336 4.796 7.173 2.383 8.56zm9.079 12.167c-4.354-.004-7.883-4.644-7.883-7.157 0-2.517 3.53-1.953 7.883-1.953 4.353.005 7.884-.563 7.884 1.953 0 2.51-3.531 7.157-7.884 7.157zm20.193-15.689c-1.926 3.344-8.698 4.915-11.114 3.526-2.408-1.392.454-5.227 2.384-8.562 1.924-3.345 5.44-4.162 7.854-2.773 2.418 1.398 2.801 4.472.876 7.809z"/></svg>